<svg width="34" height="34" viewBox="0 0 34 34" fill="none" xmlns="http://www.w3.org/2000/svg">
<mask id="path-1-inside-1_4_720" fill="white">
<path d="M20.0112 16.9552C19.8436 16.9552 19.688 16.9092 19.5497 16.835V16.837C19.5497 17.1007 19.4472 17.3483 19.2613 17.5338C19.0753 17.7198 18.8279 17.8223 18.5645 17.8223C18.3944 17.8223 18.2368 17.775 18.0971 17.699C18.083 17.9402 17.9865 18.1657 17.8145 18.3379C17.6285 18.5238 17.3811 18.6263 17.1175 18.6263C16.5939 18.6263 16.1686 18.2147 16.138 17.6988C15.976 17.7864 15.7928 17.8323 15.6039 17.8201C15.0887 17.7864 14.6853 17.3413 14.6853 16.8067V12.375L14.1807 13.2493C13.9885 13.5836 13.6287 13.7912 13.2414 13.7912C13.0526 13.7912 12.8661 13.7417 12.701 13.6471C12.4954 13.5279 12.3483 13.3365 12.2871 13.1075C12.2256 12.8785 12.2574 12.6389 12.3763 12.4335C12.3765 12.4335 14.0274 9.57463 14.1281 9.39902C14.1401 9.37261 14.1742 9.29603 14.2032 9.23076C14.2309 9.16844 14.2547 9.10449 14.2775 9.0402C14.7754 7.63464 16.0081 6.76154 17.4949 6.76154C19.4255 6.76154 20.9963 8.46475 20.9963 10.5583L20.9964 15.9698C20.9964 16.2332 20.8941 16.4806 20.7083 16.6668C20.5223 16.8528 20.2749 16.9553 20.0112 16.9553L20.0112 16.9552ZM17.4949 7.28508C16.2174 7.28508 15.1991 8.00667 14.771 9.21529C14.7436 9.29204 14.715 9.36879 14.6818 9.44357C14.5852 9.66021 14.5852 9.66021 14.5579 9.69136L14.5543 9.68824C14.4195 9.9426 14.0191 10.6361 12.8296 12.6955C12.7808 12.78 12.7678 12.8781 12.7927 12.9719C12.818 13.0657 12.8785 13.1447 12.9623 13.1931C13.2224 13.3425 13.5786 13.2461 13.7268 12.9878L14.7205 11.2675C14.7798 11.165 14.8999 11.1146 15.015 11.1458C15.1295 11.1765 15.209 11.2803 15.209 11.3987V16.8068C15.209 17.062 15.4015 17.2822 15.6382 17.2978C15.7746 17.305 15.9019 17.2592 15.9975 17.1638C16.0844 17.0769 16.1323 16.9611 16.1323 16.8373V13.3003C16.1323 13.1557 16.2495 13.0384 16.3942 13.0384C16.5388 13.0384 16.6561 13.1555 16.6561 13.3003L16.6559 17.6413C16.6559 17.8958 16.863 18.1029 17.1175 18.1029C17.2412 18.1029 17.3573 18.055 17.4444 17.9681C17.5313 17.881 17.5792 17.7649 17.5792 17.6413V13.3003C17.5792 13.1557 17.6963 13.0384 17.8411 13.0384C17.9857 13.0384 18.103 13.1555 18.103 13.3003L18.1028 16.7966V16.8373C18.1028 17.0916 18.3099 17.2987 18.5646 17.2987C18.6881 17.2987 18.8039 17.2507 18.8915 17.1635C18.9784 17.0767 19.0263 16.9609 19.0263 16.8371V13.3001C19.0263 13.1555 19.1434 13.0382 19.2882 13.0382C19.4328 13.0382 19.5501 13.1553 19.5501 13.3001L19.5497 15.9699C19.5497 16.2246 19.7568 16.4317 20.0112 16.4317C20.135 16.4317 20.2508 16.3837 20.3377 16.2969C20.4249 16.2097 20.4727 16.0936 20.4727 15.9699L20.4728 10.5584C20.4728 8.75371 19.137 7.28514 17.4949 7.28514L17.4949 7.28508Z"/>
</mask>
<path d="M20.0112 16.9552C19.8436 16.9552 19.688 16.9092 19.5497 16.835V16.837C19.5497 17.1007 19.4472 17.3483 19.2613 17.5338C19.0753 17.7198 18.8279 17.8223 18.5645 17.8223C18.3944 17.8223 18.2368 17.775 18.0971 17.699C18.083 17.9402 17.9865 18.1657 17.8145 18.3379C17.6285 18.5238 17.3811 18.6263 17.1175 18.6263C16.5939 18.6263 16.1686 18.2147 16.138 17.6988C15.976 17.7864 15.7928 17.8323 15.6039 17.8201C15.0887 17.7864 14.6853 17.3413 14.6853 16.8067V12.375L14.1807 13.2493C13.9885 13.5836 13.6287 13.7912 13.2414 13.7912C13.0526 13.7912 12.8661 13.7417 12.701 13.6471C12.4954 13.5279 12.3483 13.3365 12.2871 13.1075C12.2256 12.8785 12.2574 12.6389 12.3763 12.4335C12.3765 12.4335 14.0274 9.57463 14.1281 9.39902C14.1401 9.37261 14.1742 9.29603 14.2032 9.23076C14.2309 9.16844 14.2547 9.10449 14.2775 9.0402C14.7754 7.63464 16.0081 6.76154 17.4949 6.76154C19.4255 6.76154 20.9963 8.46475 20.9963 10.5583L20.9964 15.9698C20.9964 16.2332 20.8941 16.4806 20.7083 16.6668C20.5223 16.8528 20.2749 16.9553 20.0112 16.9553L20.0112 16.9552ZM17.4949 7.28508C16.2174 7.28508 15.1991 8.00667 14.771 9.21529C14.7436 9.29204 14.715 9.36879 14.6818 9.44357C14.5852 9.66021 14.5852 9.66021 14.5579 9.69136L14.5543 9.68824C14.4195 9.9426 14.0191 10.6361 12.8296 12.6955C12.7808 12.78 12.7678 12.8781 12.7927 12.9719C12.818 13.0657 12.8785 13.1447 12.9623 13.1931C13.2224 13.3425 13.5786 13.2461 13.7268 12.9878L14.7205 11.2675C14.7798 11.165 14.8999 11.1146 15.015 11.1458C15.1295 11.1765 15.209 11.2803 15.209 11.3987V16.8068C15.209 17.062 15.4015 17.2822 15.6382 17.2978C15.7746 17.305 15.9019 17.2592 15.9975 17.1638C16.0844 17.0769 16.1323 16.9611 16.1323 16.8373V13.3003C16.1323 13.1557 16.2495 13.0384 16.3942 13.0384C16.5388 13.0384 16.6561 13.1555 16.6561 13.3003L16.6559 17.6413C16.6559 17.8958 16.863 18.1029 17.1175 18.1029C17.2412 18.1029 17.3573 18.055 17.4444 17.9681C17.5313 17.881 17.5792 17.7649 17.5792 17.6413V13.3003C17.5792 13.1557 17.6963 13.0384 17.8411 13.0384C17.9857 13.0384 18.103 13.1555 18.103 13.3003L18.1028 16.7966V16.8373C18.1028 17.0916 18.3099 17.2987 18.5646 17.2987C18.6881 17.2987 18.8039 17.2507 18.8915 17.1635C18.9784 17.0767 19.0263 16.9609 19.0263 16.8371V13.3001C19.0263 13.1555 19.1434 13.0382 19.2882 13.0382C19.4328 13.0382 19.5501 13.1553 19.5501 13.3001L19.5497 15.9699C19.5497 16.2246 19.7568 16.4317 20.0112 16.4317C20.135 16.4317 20.2508 16.3837 20.3377 16.2969C20.4249 16.2097 20.4727 16.0936 20.4727 15.9699L20.4728 10.5584C20.4728 8.75371 19.137 7.28514 17.4949 7.28514L17.4949 7.28508Z" fill="#4CAF4F"/>
<path d="M20.0112 16.9552V16.0271H23.2902L20.4976 17.7457L20.0112 16.9552ZM19.5497 16.835H18.6216V15.2843L19.9883 16.0171L19.5497 16.835ZM19.2613 17.5338L18.605 16.8776L18.6059 16.8767L19.2613 17.5338ZM18.0971 17.699L17.1706 17.6448L17.256 16.1841L18.5409 16.8839L18.0971 17.699ZM17.8145 18.3379L18.4711 18.9938L18.4708 18.9941L17.8145 18.3379ZM16.138 17.6988L15.6967 16.8823L16.9781 16.1898L17.0645 17.6438L16.138 17.6988ZM15.6039 17.8201L15.5444 18.7463L15.5431 18.7462L15.6039 17.8201ZM14.6853 12.375L13.8815 11.9111L15.6134 8.91065V12.375H14.6853ZM14.1807 13.2493L13.3761 12.7868L13.3769 12.7853L14.1807 13.2493ZM12.701 13.6471L12.2396 14.4524L12.2355 14.45L12.701 13.6471ZM12.2871 13.1075L13.1835 12.8669L13.1837 12.868L12.2871 13.1075ZM12.3763 12.4335L11.5731 11.9685L11.8412 11.5054H12.3763V12.4335ZM14.1281 9.39902L14.9734 9.78228L14.9551 9.82246L14.9332 9.86074L14.1281 9.39902ZM14.2032 9.23076L13.3552 8.85364L13.3552 8.85362L14.2032 9.23076ZM14.2775 9.0402L15.1523 9.35008L15.1522 9.35033L14.2775 9.0402ZM20.9963 10.5583L20.0682 10.5583V10.5583H20.9963ZM20.9964 15.9698L21.9245 15.9698V15.9698H20.9964ZM20.7083 16.6668L21.3652 17.3224L21.3645 17.3231L20.7083 16.6668ZM20.0112 16.9553V17.8833H16.7322L19.5248 16.1648L20.0112 16.9553ZM17.4949 7.28508V6.35699H18.7253L18.3873 7.54005L17.4949 7.28508ZM14.771 9.21529L15.6458 9.52521L15.6451 9.52721L14.771 9.21529ZM14.6818 9.44357L15.5296 9.82103L15.5294 9.82152L14.6818 9.44357ZM14.5579 9.69136L15.2568 10.302L14.6497 10.9969L13.9513 10.3938L14.5579 9.69136ZM14.5543 9.68824L13.7343 9.25364L14.2796 8.22468L15.1609 8.98584L14.5543 9.68824ZM12.8296 12.6955L13.6333 13.1597L13.6329 13.1604L12.8296 12.6955ZM12.7927 12.9719L11.8965 13.2132L11.8958 13.2102L12.7927 12.9719ZM12.9623 13.1931L12.5 13.9979L12.4983 13.9969L12.9623 13.1931ZM13.7268 12.9878L12.9219 12.5258L12.9232 12.5236L13.7268 12.9878ZM14.7205 11.2675L13.9168 10.8033L13.9174 10.8023L14.7205 11.2675ZM15.015 11.1458L14.7748 12.0423L14.7725 12.0417L15.015 11.1458ZM15.6382 17.2978L15.5892 18.2247L15.5772 18.2239L15.6382 17.2978ZM15.9975 17.1638L16.6537 17.8201L16.6532 17.8206L15.9975 17.1638ZM16.6561 13.3003H17.5842V13.3003L16.6561 13.3003ZM16.6559 17.6413H15.7278V17.6412L16.6559 17.6413ZM17.4444 17.9681L18.1013 18.6237L18.1 18.625L17.4444 17.9681ZM18.103 13.3003H19.0311V13.3003L18.103 13.3003ZM18.1028 16.7966H17.1747V16.7966L18.1028 16.7966ZM18.8915 17.1635L19.5471 17.8203L19.5465 17.8209L18.8915 17.1635ZM19.5501 13.3001H20.4781V13.3002L19.5501 13.3001ZM19.5497 15.9699H18.6216V15.9698L19.5497 15.9699ZM20.3377 16.2969L20.994 16.9532L20.9933 16.9538L20.3377 16.2969ZM20.4727 15.9699H19.5446V15.9699L20.4727 15.9699ZM20.4728 10.5584H21.4009V10.5585L20.4728 10.5584ZM17.4949 7.28514V8.21323H16.2645L16.6025 7.03017L17.4949 7.28514ZM20.0112 17.8833C19.6695 17.8833 19.3644 17.7887 19.1112 17.653L19.9883 16.0171C20.0003 16.0235 20.0079 16.026 20.0109 16.0268C20.0135 16.0275 20.0132 16.0271 20.0112 16.0271V17.8833ZM20.4778 16.835V16.837H18.6216V16.835H20.4778ZM20.4778 16.837C20.4778 17.3461 20.2781 17.8305 19.9167 18.1909L18.6059 16.8767C18.6125 16.8701 18.6158 16.8644 18.6177 16.8598C18.6196 16.8551 18.6216 16.848 18.6216 16.837H20.4778ZM19.9175 18.1901C19.5574 18.5502 19.0738 18.7504 18.5645 18.7504V16.8942C18.5751 16.8942 18.5821 16.8922 18.5869 16.8903C18.5916 16.8883 18.5978 16.8848 18.605 16.8776L19.9175 18.1901ZM18.5645 18.7504C18.2183 18.7504 17.9093 18.6535 17.6532 18.514L18.5409 16.8839C18.553 16.8905 18.5607 16.893 18.5637 16.8938C18.5663 16.8945 18.5661 16.8942 18.5645 16.8942V18.7504ZM19.0236 17.7531C18.9969 18.2099 18.8116 18.653 18.4711 18.9938L17.1579 17.682C17.1614 17.6785 17.1633 17.6755 17.165 17.6716C17.1669 17.6675 17.1697 17.659 17.1706 17.6448L19.0236 17.7531ZM18.4708 18.9941C18.1105 19.3544 17.6269 19.5544 17.1175 19.5544V17.6983C17.1283 17.6983 17.1354 17.6963 17.1401 17.6943C17.1449 17.6924 17.151 17.6889 17.1583 17.6816L18.4708 18.9941ZM17.1175 19.5544C16.0929 19.5544 15.2707 18.7503 15.2115 17.7538L17.0645 17.6438C17.0654 17.6595 17.0719 17.6734 17.0833 17.6843C17.0889 17.6896 17.0945 17.693 17.0994 17.695C17.1037 17.6968 17.1092 17.6983 17.1175 17.6983V19.5544ZM16.5793 18.5153C16.2795 18.6773 15.9241 18.7707 15.5444 18.7463L15.6634 16.894C15.6634 16.894 15.6654 16.8942 15.6703 16.893C15.6755 16.8918 15.6846 16.8889 15.6967 16.8823L16.5793 18.5153ZM15.5431 18.7462C14.5126 18.6787 13.7572 17.8023 13.7572 16.8067H15.6134C15.6134 16.838 15.6248 16.8622 15.6391 16.878C15.653 16.8933 15.6625 16.8939 15.6646 16.894L15.5431 18.7462ZM13.7572 16.8067V12.375H15.6134V16.8067H13.7572ZM15.4891 12.839L14.9845 13.7132L13.3769 12.7853L13.8815 11.9111L15.4891 12.839ZM14.9854 13.7118C14.6267 14.3357 13.9592 14.7193 13.2414 14.7193V12.8632C13.2983 12.8632 13.3503 12.8316 13.3761 12.7868L14.9854 13.7118ZM13.2414 14.7193C12.8904 14.7193 12.5449 14.6273 12.2396 14.4524L13.1624 12.8418C13.1874 12.8561 13.2148 12.8632 13.2414 12.8632V14.7193ZM12.2355 14.45C11.8188 14.2085 11.5156 13.8153 11.3905 13.3471L13.1837 12.868C13.1829 12.8648 13.1806 12.8592 13.1761 12.8534C13.1717 12.8476 13.1676 12.8448 13.1665 12.8442L12.2355 14.45ZM11.3907 13.3482C11.2651 12.8803 11.3309 12.3868 11.5731 11.9685L13.1795 12.8986C13.1808 12.8963 13.1831 12.891 13.1841 12.8835C13.1851 12.876 13.1843 12.87 13.1835 12.8669L11.3907 13.3482ZM12.3763 11.5054C11.921 11.6248 11.5803 11.9564 11.5777 11.9606C11.5769 11.9621 11.5756 11.9642 11.5752 11.9649C11.575 11.9653 11.5746 11.966 11.5745 11.9662C11.5744 11.9663 11.5742 11.9666 11.5742 11.9667C11.574 11.9669 11.5741 11.9669 11.5744 11.9663C11.5751 11.9652 11.5761 11.9633 11.5777 11.9607C11.5807 11.9554 11.5853 11.9475 11.5913 11.937C11.6034 11.9161 11.6212 11.8854 11.6438 11.8461C11.6892 11.7676 11.7541 11.6553 11.8322 11.5199C11.9886 11.2492 12.1981 10.8864 12.4107 10.5181C12.8368 9.7802 13.2735 9.02355 13.323 8.93729L14.9332 9.86074C14.8819 9.95009 14.4429 10.7107 14.0182 11.4462C13.8056 11.8145 13.596 12.1774 13.4396 12.4482C13.3614 12.5836 13.2965 12.696 13.2511 12.7746C13.2285 12.8138 13.2106 12.8447 13.1985 12.8657C13.1924 12.8763 13.1877 12.8844 13.1845 12.89C13.1829 12.8927 13.1816 12.895 13.1806 12.8967C13.1801 12.8974 13.1796 12.8984 13.1791 12.8993C13.1789 12.8996 13.1783 12.9007 13.1775 12.9019C13.1771 12.9027 13.1758 12.9049 13.1749 12.9064C13.1723 12.9107 12.8316 13.2423 12.3763 13.3616V11.5054ZM13.2828 9.01576C13.293 8.99323 13.3254 8.92058 13.3552 8.85364L15.0512 9.60789C15.0229 9.67148 14.9871 9.752 14.9734 9.78228L13.2828 9.01576ZM13.3552 8.85362C13.3681 8.82462 13.3824 8.78756 13.4027 8.73007L15.1522 9.35033C15.127 9.42142 15.0937 9.51227 15.0512 9.6079L13.3552 8.85362ZM13.4027 8.73033C14.0312 6.95571 15.6134 5.83345 17.4949 5.83345V7.68963C16.4028 7.68963 15.5195 8.31357 15.1523 9.35008L13.4027 8.73033ZM17.4949 5.83345C20.0075 5.83345 21.9244 8.02438 21.9244 10.5583H20.0682C20.0682 8.90512 18.8436 7.68963 17.4949 7.68963V5.83345ZM21.9244 10.5583L21.9245 15.9698L20.0683 15.9698L20.0682 10.5583L21.9244 10.5583ZM21.9245 15.9698C21.9245 16.4787 21.7248 16.9621 21.3652 17.3224L20.0514 16.0111C20.0588 16.0038 20.0623 15.9975 20.0643 15.9927C20.0664 15.9878 20.0683 15.9806 20.0683 15.9698H21.9245ZM21.3645 17.3231C21.0043 17.6833 20.5207 17.8833 20.0112 17.8833V16.0272C20.0221 16.0272 20.0292 16.0252 20.0339 16.0232C20.0387 16.0213 20.0448 16.0178 20.052 16.0105L21.3645 17.3231ZM19.5248 16.1648L19.5248 16.1648L20.4976 17.7457L20.4976 17.7457L19.5248 16.1648ZM17.4949 8.21317C16.6125 8.21317 15.9434 8.68522 15.6458 9.52521L13.8961 8.90537C14.4549 7.32812 15.8223 6.35699 17.4949 6.35699V8.21317ZM15.6451 9.52721C15.6158 9.60931 15.5777 9.71299 15.5296 9.82103L13.8339 9.06612C13.8524 9.02458 13.8714 8.97477 13.8969 8.90338L15.6451 9.52721ZM15.5294 9.82152C15.4869 9.91684 15.4513 9.99734 15.424 10.0519C15.4071 10.0857 15.3798 10.1379 15.3401 10.1956C15.2998 10.2542 15.2601 10.2983 15.2568 10.302L13.859 9.08071C13.8612 9.07821 13.8605 9.07902 13.8594 9.0803C13.858 9.08195 13.8544 9.08615 13.8496 9.09192C13.8447 9.0979 13.8386 9.10562 13.8316 9.11479C13.8246 9.12405 13.8175 9.13391 13.8103 9.1443C13.7958 9.16545 13.7846 9.18398 13.7766 9.198C13.7692 9.21108 13.7646 9.22014 13.7636 9.22218C13.7626 9.22429 13.7632 9.22305 13.7664 9.21629C13.7694 9.20975 13.7738 9.20033 13.78 9.18661C13.7861 9.17302 13.7935 9.1566 13.8026 9.13631C13.8116 9.11605 13.822 9.09283 13.8341 9.06562L15.5294 9.82152ZM13.9513 10.3938L13.9477 10.3906L15.1609 8.98584L15.1646 8.98896L13.9513 10.3938ZM15.3744 10.1228C15.2291 10.3969 14.8144 11.1147 13.6333 13.1597L12.0259 12.2314C13.2237 10.1576 13.6099 9.48827 13.7343 9.25364L15.3744 10.1228ZM13.6329 13.1604C13.7072 13.0321 13.7279 12.8772 13.6897 12.7335L11.8958 13.2102C11.8077 12.8789 11.8543 12.528 12.0263 12.2307L13.6329 13.1604ZM13.6889 12.7306C13.6507 12.5887 13.5568 12.4647 13.4263 12.3893L12.4983 13.9969C12.2001 13.8248 11.9852 13.5426 11.8965 13.2131L13.6889 12.7306ZM13.4246 12.3883C13.3189 12.3276 13.2162 12.328 13.1452 12.3471C13.0745 12.3662 12.9839 12.4177 12.9219 12.5258L14.5318 13.4498C14.1273 14.1545 13.2029 14.4016 12.5 13.9979L13.4246 12.3883ZM12.9232 12.5236L13.9168 10.8033L15.5241 11.7317L14.5305 13.452L12.9232 12.5236ZM13.9174 10.8023C14.1854 10.3395 14.7326 10.1079 15.2575 10.2499L14.7725 12.0417C15.0671 12.1214 15.3742 11.9905 15.5236 11.7327L13.9174 10.8023ZM15.2552 10.2493C15.7758 10.3888 16.1371 10.8607 16.1371 11.3987H14.2809C14.2809 11.6999 14.4831 11.9641 14.7748 12.0423L15.2552 10.2493ZM16.1371 11.3987V16.8068H14.2809V11.3987H16.1371ZM16.1371 16.8068C16.1371 16.7011 16.0979 16.6049 16.0336 16.5313C15.9694 16.4579 15.8561 16.382 15.6991 16.3717L15.5772 18.2239C14.7959 18.1725 14.2809 17.4919 14.2809 16.8068H16.1371ZM15.6872 16.371C15.5775 16.3652 15.4436 16.4054 15.3418 16.507L16.6532 17.8206C16.3602 18.1131 15.9717 18.2448 15.5892 18.2246L15.6872 16.371ZM15.3412 16.5075C15.2531 16.5956 15.2042 16.7163 15.2042 16.8373H17.0604C17.0604 17.2059 16.9157 17.5582 16.6537 17.8201L15.3412 16.5075ZM15.2042 16.8373V13.3003H17.0604V16.8373H15.2042ZM15.2042 13.3003C15.2042 12.6431 15.737 12.1103 16.3942 12.1103V13.9665C16.7621 13.9665 17.0604 13.6682 17.0604 13.3003H15.2042ZM16.3942 12.1103C17.051 12.1103 17.5842 12.6426 17.5842 13.3003H15.728C15.728 13.6684 16.0266 13.9665 16.3942 13.9665V12.1103ZM17.5842 13.3003L17.584 17.6413L15.7278 17.6412L15.728 13.3003L17.5842 13.3003ZM17.584 17.6413C17.584 17.3832 17.3756 17.1748 17.1175 17.1748V19.031C16.3505 19.031 15.7278 18.4083 15.7278 17.6413H17.584ZM17.1175 17.1748C16.9968 17.1748 16.8767 17.2235 16.7888 17.3112L18.1 18.625C17.8379 18.8865 17.4856 19.031 17.1175 19.031V17.1748ZM16.7875 17.3124C16.6998 17.4004 16.6511 17.5205 16.6511 17.6413H18.5073C18.5073 18.0093 18.3628 18.3617 18.1013 18.6237L16.7875 17.3124ZM16.6511 17.6413V13.3003H18.5073V17.6413H16.6511ZM16.6511 13.3003C16.6511 12.6435 17.1833 12.1103 17.8411 12.1103V13.9665C18.2092 13.9665 18.5073 13.6678 18.5073 13.3003H16.6511ZM17.8411 12.1103C18.4979 12.1103 19.0311 12.6425 19.0311 13.3003H17.1749C17.1749 13.6684 17.4735 13.9665 17.8411 13.9665V12.1103ZM19.0311 13.3003L19.0309 16.7967L17.1747 16.7966L17.1749 13.3003L19.0311 13.3003ZM19.0309 16.7966V16.8373H17.1747V16.7966H19.0309ZM19.0309 16.8373C19.0309 16.5786 18.8221 16.3707 18.5646 16.3707V18.2268C17.7978 18.2268 17.1747 17.6047 17.1747 16.8373H19.0309ZM18.5646 16.3707C18.4413 16.3707 18.3219 16.4208 18.2364 16.506L19.5465 17.8209C19.2859 18.0806 18.9349 18.2268 18.5646 18.2268V16.3707ZM18.2358 16.5066C18.147 16.5952 18.0982 16.7163 18.0982 16.8371H19.9544C19.9544 17.2056 19.8097 17.5582 19.5471 17.8203L18.2358 16.5066ZM18.0982 16.8371V13.3001H19.9544V16.8371H18.0982ZM18.0982 13.3001C18.0982 12.6433 18.6304 12.1101 19.2882 12.1101V13.9663C19.6563 13.9663 19.9544 13.6677 19.9544 13.3001H18.0982ZM19.2882 12.1101C19.945 12.1101 20.4781 12.6424 20.4781 13.3001H18.622C18.622 13.6683 18.9206 13.9663 19.2882 13.9663V12.1101ZM20.4781 13.3002L20.4778 15.97L18.6216 15.9698L18.622 13.3L20.4781 13.3002ZM20.4778 15.9699C20.4778 15.7125 20.2699 15.5036 20.0112 15.5036V17.3598C19.2438 17.3598 18.6216 16.7367 18.6216 15.9699H20.4778ZM20.0112 15.5036C19.8894 15.5036 19.7693 15.5529 19.6821 15.6401L20.9933 16.9538C20.7322 17.2144 20.3806 17.3598 20.0112 17.3598V15.5036ZM19.6814 15.6407C19.5931 15.729 19.5446 15.8497 19.5446 15.9699H21.4008C21.4008 16.3375 21.2568 16.6903 20.994 16.9532L19.6814 15.6407ZM19.5446 15.9699L19.5447 10.5584L21.4009 10.5585L21.4008 15.97L19.5446 15.9699ZM19.5447 10.5584C19.5447 9.1817 18.5437 8.21323 17.4949 8.21323V6.35704C19.7302 6.35704 21.4009 8.32572 21.4009 10.5584H19.5447ZM16.6025 7.03017L16.6025 7.03012L18.3873 7.54005L18.3873 7.5401L16.6025 7.03017Z" fill="#4CAF4F" mask="url(#path-1-inside-1_4_720)"/>
<path d="M11.5286 21.9301C11.4043 22.0049 11.2436 21.9645 11.1693 21.8404C11.0949 21.7164 11.1352 21.5555 11.259 21.4811M11.5286 21.9301L13.7912 18.8856C14.0098 18.7542 14.2981 18.806 14.4329 19.001M11.5286 21.9301L14.5615 20.1106H14.5617L14.562 20.1104M11.5286 21.9301L15.726 20.4888C15.8319 20.4251 15.9067 20.3244 15.9366 20.2049M11.259 21.4811L14.2921 19.6616C14.398 19.598 14.4729 19.4971 14.5028 19.3779M11.259 21.4811L11.2897 21.5323L11.3937 21.7056L11.3939 21.706L11.4408 21.7841L11.4977 21.879L11.4979 21.879L11.4979 21.8789L11.4982 21.8788M11.259 21.4811L11.2898 21.5322M14.5028 19.3779C14.5356 19.247 14.5107 19.1132 14.4329 19.001M14.5028 19.3779L14.5776 19.3966L14.5705 19.2428C14.5656 19.1368 14.5346 19.0429 14.4822 18.9673L14.482 18.9671L14.4329 19.001M14.5028 19.3779L14.5776 19.3966L14.585 19.5555L14.4332 19.6465H14.433L14.3228 19.7127L14.3227 19.7127L14.3227 19.7127L11.2899 21.5322M14.4329 19.001L14.482 18.967L12.2427 23.1195C12.3379 23.0622 12.3694 22.9384 12.3117 22.8422C12.2544 22.7469 12.1301 22.7155 12.0344 22.7729L15.0673 20.9535C15.137 20.9116 15.21 20.8801 15.2846 20.8583L15.755 20.5371L15.755 20.5371L15.7809 20.5194C15.8913 20.4441 15.9643 20.3397 15.9943 20.2195L15.9943 20.2193L15.9366 20.2049M11.2899 21.5322C11.3853 21.4751 11.5096 21.506 11.5671 21.6015C11.5673 21.6017 11.5674 21.6019 11.5675 21.6021C11.6247 21.6982 11.5932 21.8216 11.4982 21.8788M11.2899 21.5322C11.2899 21.5322 11.2898 21.5322 11.2898 21.5322M11.2899 21.5322L11.2898 21.5322M11.4982 21.8788L14.5308 20.0595L14.5308 20.0595L14.531 20.0594C14.5311 20.0593 14.5312 20.0593 14.5313 20.0592L14.5615 20.1096L14.5617 20.1099L14.562 20.1104M11.4982 21.8788L11.3942 21.7058L11.394 21.7055L11.3588 21.647L11.2898 21.5322M14.562 20.1104V20.0399C14.6205 20.0016 14.6741 19.9572 14.7219 19.9076L15.2211 19.647L15.2211 19.647L15.2488 19.6326C15.329 19.5907 15.4099 19.5711 15.4868 19.5711C15.5284 19.5711 15.5713 19.5763 15.6149 19.5871C15.615 19.5871 15.615 19.5871 15.615 19.5871C15.6152 19.5872 15.6153 19.5872 15.6154 19.5872L15.7131 19.1948M14.562 20.1104L15.2511 19.697C15.3567 19.6337 15.4803 19.6152 15.6005 19.645C15.7201 19.6749 15.821 19.7496 15.8844 19.8554C15.9479 19.9614 15.9664 20.0855 15.9366 20.2049M15.7131 19.1948C15.7131 19.1948 15.7131 19.1948 15.7131 19.1948M15.7131 19.1948C15.9523 19.2546 16.1556 19.4055 16.2823 19.6166L16.3334 19.5859M15.7131 19.1948L15.7276 19.1369M15.7131 19.1948L15.6151 19.5871C15.7508 19.6211 15.8633 19.7044 15.9354 19.8246C15.9354 19.8246 15.9355 19.8247 15.9355 19.8248C15.9355 19.8248 15.9355 19.8248 15.9355 19.8248C16.0078 19.9455 16.0282 20.084 15.9944 20.2192L15.9943 20.2193L15.9366 20.2049M15.7131 19.1948C15.713 19.1948 15.713 19.1948 15.7129 19.1948L15.7124 19.1946C15.6407 19.1768 15.568 19.1677 15.4957 19.1671M15.7131 19.1948L15.7276 19.1369M15.2755 21.3002L15.5371 21.1432L15.8068 21.3023C15.8876 21.35 15.9487 21.4097 15.99 21.4787L15.9901 21.4789C15.9902 21.479 15.9902 21.4791 15.9903 21.4791L15.9393 21.5097M15.2755 21.3002L16.0493 21.8738C16.083 21.7381 16.0625 21.5998 15.9903 21.4792L15.9393 21.5097M15.2755 21.3002L15.3062 21.3513M15.2755 21.3002L15.2755 21.3002L15.3062 21.3513M15.9393 21.5097C15.8083 21.2915 15.5241 21.2205 15.3062 21.3513M15.9393 21.5097C16.003 21.6155 16.0215 21.7398 15.9917 21.8594L15.3062 21.3513M16.3815 21.2295C16.3838 21.2331 16.386 21.2367 16.3881 21.2403L16.3815 21.2295ZM16.3815 21.2295C16.3659 21.2417 16.3499 21.2536 16.3338 21.2652C16.3348 21.267 16.3359 21.2688 16.337 21.2705L16.3815 21.2295ZM16.3093 20.5217C16.3427 20.4576 16.3688 20.3892 16.3868 20.3174L16.3093 20.5217ZM16.3093 20.5217C16.326 20.532 16.3425 20.5428 16.3588 20.5538C16.3961 20.4845 16.425 20.4102 16.4445 20.3318C16.5083 20.0767 16.4688 19.8119 16.3334 19.5859M16.3093 20.5217L16.3868 20.3173C16.4465 20.0782 16.4089 19.8279 16.2825 19.6169L16.2823 19.6167C16.2823 19.6166 16.2823 19.6166 16.2823 19.6166L16.3334 19.5859M16.3334 19.5859C16.1981 19.3603 15.9829 19.2007 15.7276 19.1369M15.7276 19.1369L15.4905 19.1071M15.4905 19.1071C15.4926 19.1271 15.4944 19.1471 15.4957 19.1671M15.4905 19.1071C15.4893 19.1071 15.488 19.1071 15.4868 19.1071C15.3299 19.1071 15.1757 19.1473 15.034 19.2212M15.4905 19.1071L15.034 19.2212M15.4957 19.1671C15.4965 19.178 15.4971 19.1888 15.4976 19.1997L15.4868 19.2002L15.1987 19.2136M15.4957 19.1671C15.4928 19.1671 15.4898 19.1671 15.4868 19.1671C15.3889 19.1671 15.2918 19.1828 15.1987 19.2136M15.1987 19.2136L15.034 19.2212M15.1987 19.2136C15.1515 19.2292 15.1053 19.2487 15.0606 19.2721C15.0443 19.2805 15.0283 19.2895 15.0125 19.299L15.0123 19.2991L14.9793 19.3189M15.034 19.2212L14.7696 19.4447L14.7696 19.4447L14.9529 19.4906C14.9529 19.4906 14.9529 19.4907 14.9529 19.4907C14.9672 19.4336 14.976 19.3761 14.9793 19.3189M15.034 19.2212L14.9632 19.0855M15.034 19.2212C15.0267 19.0631 14.985 18.9074 14.905 18.7685C14.8868 18.7765 14.8688 18.785 14.851 18.7938M14.9793 19.3189C14.9812 19.2871 14.9814 19.2553 14.98 19.2237C14.9779 19.1772 14.9723 19.131 14.9632 19.0855M14.9793 19.3189L14.9632 19.0855M14.9632 19.0855L14.8193 18.8098C14.8298 18.8044 14.8404 18.799 14.851 18.7938M14.9632 19.0855L14.8144 18.7368C14.8273 18.7555 14.8395 18.7745 14.851 18.7938M14.9632 19.0855C14.9428 18.9835 14.905 18.885 14.851 18.7938M16.0426 20.9027L16.1219 20.7682C16.0876 20.8003 16.0506 20.83 16.0113 20.8568C15.9962 20.8672 15.9807 20.8771 15.9649 20.8866L15.9647 20.8867L15.9312 20.9068L16.0426 20.9027ZM8.63179 18.743L8.57903 18.7153C8.56934 18.7327 8.54519 18.7762 8.50952 18.8405C8.50069 18.8564 8.49115 18.8736 8.48095 18.892C8.49914 18.901 8.51748 18.909 8.53585 18.9159C8.56722 18.8594 8.5992 18.8018 8.63179 18.743ZM12.7788 24.0137C12.7787 24.0137 12.7787 24.0137 12.7786 24.0138L12.7788 24.0137Z" fill="#4CAF4F" stroke="#4CAF4F" stroke-width="0.928093"/>
<path d="M24.4805 19.5791L24.4805 19.5792L24.4805 19.5791ZM24.4805 19.5791C24.3833 19.4049 24.3872 19.1904 24.4902 19.0187L24.4805 19.5791ZM18.7389 19.1669C18.6664 19.1675 18.5935 19.1766 18.5216 19.1947L18.7389 19.1669ZM18.7389 19.1669C18.7403 19.1469 18.742 19.127 18.7442 19.107L18.7389 19.1669ZM24.0629 19.9046L24.0235 19.8336L24.0629 19.9046ZM22.9447 21.5321C22.9446 21.532 22.9445 21.532 22.9444 21.5319L22.9446 21.532L22.9447 21.5321ZM21.4559 24.014C21.4557 24.014 21.4556 24.0139 21.4555 24.0138L21.4559 24.014ZM21.4554 24.0137L21.4555 24.0138L21.4554 24.0137Z" fill="#4CAF4F" stroke="#4CAF4F" stroke-width="0.928093"/>
</svg>
