<svg width="34" height="34" viewBox="0 0 34 34" fill="none" xmlns="http://www.w3.org/2000/svg">
<path d="M4.13263 11.8247V12.1728H4.48066H29.5392H29.8872V11.8247V10.2586C29.8872 9.474 29.5755 8.72155 29.0207 8.16676C28.4659 7.61197 27.7135 7.30029 26.9289 7.30029H7.09093C6.30634 7.30029 5.55388 7.61197 4.99909 8.16676C4.44431 8.72155 4.13263 9.474 4.13263 10.2586V11.8247ZM29.8872 13.913V13.5649H29.5392H4.48066H4.13263V13.913V23.8319C4.13263 24.6165 4.44431 25.369 4.99909 25.9238C5.55388 26.4786 6.30634 26.7902 7.09093 26.7902H26.9289C27.7135 26.7902 28.4659 26.4786 29.0207 25.9238C29.5755 25.369 29.8872 24.6165 29.8872 23.8319V13.913ZM2.74049 10.2586C2.74049 9.10478 3.19884 7.99823 4.0147 7.18237C4.83057 6.3665 5.93712 5.90815 7.09093 5.90815H26.9289C28.0827 5.90815 29.1893 6.3665 30.0051 7.18237C30.821 7.99823 31.2793 9.10478 31.2793 10.2586V23.8319C31.2793 24.9858 30.821 26.0923 30.0051 26.9082C29.1893 27.724 28.0827 28.1824 26.9289 28.1824H7.09093C5.93712 28.1824 4.83057 27.724 4.0147 26.9082C3.19884 26.0923 2.74049 24.9858 2.74049 23.8319V10.2586ZM22.2304 20.5256H25.3627C25.5474 20.5256 25.7244 20.5989 25.8549 20.7295C25.9855 20.86 26.0588 21.0371 26.0588 21.2217C26.0588 21.4063 25.9855 21.5833 25.8549 21.7139C25.7244 21.8444 25.5474 21.9178 25.3627 21.9178H22.2304C22.0458 21.9178 21.8688 21.8444 21.7382 21.7139C21.6077 21.5833 21.5344 21.4063 21.5344 21.2217C21.5344 21.0371 21.6077 20.86 21.7382 20.7295C21.8688 20.5989 22.0458 20.5256 22.2304 20.5256Z" fill="#4CAF4F" stroke="#4CAF4F" stroke-width="0.696069"/>
</svg>
