<svg width="35" height="34" viewBox="0 0 35 34" fill="none" xmlns="http://www.w3.org/2000/svg">
<g clip-path="url(#clip0_4_714)">
<path d="M33.1456 27.2531L33.1457 27.2531C33.2769 27.1621 33.3888 27.0459 33.4747 26.9113L33.768 27.0986L33.4747 26.9113C33.5607 26.7767 33.619 26.6264 33.6463 26.469C33.6736 26.3116 33.6694 26.1504 33.6339 25.9947L33.9732 25.9173L33.6339 25.9947C33.5983 25.839 33.5322 25.6919 33.4393 25.562L33.4378 25.5598C32.1307 23.7019 30.3498 22.228 28.2801 21.2914L27.7754 21.063L28.2002 20.7075C29.46 19.653 30.3642 18.2358 30.7897 16.649C31.2153 15.0622 31.1414 13.3828 30.5782 11.8395C30.015 10.2962 28.9898 8.96392 27.6423 8.02413C26.2948 7.08434 24.6904 6.58268 23.0475 6.58745L23.0459 6.58745C22.3148 6.58623 21.5871 6.68719 20.8839 6.88738L20.8777 6.88916L20.8776 6.8891C20.7215 6.93043 20.5751 7.00242 20.447 7.10088C20.3189 7.19933 20.2116 7.32229 20.1315 7.46259C20.0514 7.60289 20 7.75772 19.9802 7.91807C19.9605 8.07843 19.9729 8.24111 20.0167 8.39663C20.0604 8.55216 20.1347 8.69742 20.2352 8.82397L19.9625 9.04034L20.2352 8.82397C20.3356 8.95052 20.4602 9.05582 20.6017 9.13375L20.4339 9.43862L20.6017 9.13375C20.7433 9.21168 20.8989 9.26067 21.0595 9.27788C21.2202 9.29509 21.3826 9.28017 21.5375 9.23398L21.5415 9.23279L21.5415 9.23282C22.0311 9.09313 22.5379 9.02273 23.0471 9.02369M33.1456 27.2531L23.0465 9.37173M33.1456 27.2531L33.1416 27.256C32.9384 27.4012 32.6948 27.479 32.445 27.4782C32.2497 27.4771 32.0575 27.4294 31.8842 27.3392C31.711 27.2491 31.5617 27.1191 31.4487 26.9599M33.1456 27.2531L31.1644 27.1607M23.0471 9.02369L23.0465 9.37173M23.0471 9.02369C23.0469 9.02369 23.0467 9.02369 23.0465 9.02369V9.37173M23.0471 9.02369C24.5238 9.02387 25.9399 9.61053 26.984 10.6547C28.0284 11.699 28.615 13.1154 28.615 14.5922C28.615 16.0691 28.0284 17.4855 26.984 18.5298C25.9397 19.5741 24.5234 20.1608 23.0465 20.1608C22.7234 20.1608 22.4136 20.2891 22.1851 20.5176C21.9567 20.746 21.8284 21.0559 21.8284 21.3789C21.8284 21.702 21.9567 22.0118 22.1851 22.2403C22.4136 22.4687 22.7234 22.597 23.0465 22.597H23.0469C24.6943 22.5989 26.3172 22.9961 27.7793 23.7553C29.2412 24.5145 30.4996 25.6134 31.4487 26.9599M23.0465 9.37173C24.4311 9.37173 25.7589 9.92175 26.7379 10.9008C27.717 11.8798 28.267 13.2077 28.267 14.5922C28.267 15.9768 27.717 17.3047 26.7379 18.2837C25.7589 19.2628 24.4311 19.8128 23.0465 19.8128C22.6311 19.8128 22.2328 19.9778 21.939 20.2715C21.6453 20.5652 21.4803 20.9636 21.4803 21.3789C21.4803 21.7943 21.6453 22.1927 21.939 22.4864C22.2328 22.7801 22.6311 22.9451 23.0465 22.9451C24.6382 22.9468 26.2063 23.3306 27.6189 24.0642C29.0315 24.7977 30.2474 25.8596 31.1644 27.1607M31.4487 26.9599C31.4485 26.9597 31.4484 26.9595 31.4483 26.9593L31.1644 27.1607M31.4487 26.9599C31.4487 26.96 31.4488 26.9601 31.4489 26.9601L31.1644 27.1607M17.5628 20.708L17.14 21.0636L17.6433 21.2914C19.7129 22.228 21.4939 23.7019 22.801 25.5598L22.806 25.5669L22.8113 25.5737C22.9128 25.7038 22.9869 25.8532 23.0289 26.0127C23.071 26.1723 23.0802 26.3388 23.056 26.502C23.0318 26.6652 22.9746 26.8219 22.8881 26.9623C22.8015 27.1028 22.6873 27.2243 22.5523 27.3193C22.4174 27.4143 22.2646 27.4809 22.1031 27.515C21.9417 27.5492 21.775 27.5501 21.6131 27.5179C21.4513 27.4857 21.2977 27.4209 21.1616 27.3275C21.0256 27.2341 20.9099 27.114 20.8217 26.9746L20.8172 26.9675L20.8124 26.9607C19.8653 25.6116 18.6072 24.5105 17.1447 23.7503C15.6821 22.9901 14.058 22.5933 12.4097 22.5933C10.7613 22.5933 9.13725 22.9901 7.67468 23.7503C6.21212 24.5105 4.95408 25.6116 4.00692 26.9607L4.00614 26.9618C3.8948 27.1217 3.74634 27.2522 3.5735 27.3421C3.40066 27.4321 3.20858 27.4788 3.01373 27.4782L3.0116 27.4782C2.7617 27.4791 2.51787 27.4013 2.31457 27.256L2.3129 27.2548C2.04938 27.0688 1.87041 26.7859 1.81522 26.4681C1.76005 26.1504 1.8331 25.8238 2.01835 25.5598C3.32545 23.7019 5.1064 22.228 7.17602 21.2914L7.67933 21.0636L7.25658 20.708C6.00015 19.651 5.09913 18.2333 4.67568 16.647C4.25222 15.0606 4.32681 13.3824 4.88934 11.8399C5.45187 10.2974 6.47512 8.96518 7.82036 8.02386C9.16561 7.08254 10.7678 6.57765 12.4097 6.57765C14.0516 6.57765 15.6537 7.08254 16.999 8.02386C18.3442 8.96518 19.3675 10.2974 19.93 11.8399C20.4925 13.3824 20.5671 15.0606 20.1437 16.647C19.7202 18.2333 18.8192 19.651 17.5628 20.708ZM7.77958 11.4985C7.1677 12.4143 6.84111 13.4909 6.84111 14.5922C6.84111 16.0691 7.4278 17.4855 8.47211 18.5298C9.51641 19.5741 10.9328 20.1608 12.4097 20.1608C13.511 20.1608 14.5876 19.8342 15.5034 19.2223C16.4191 18.6105 17.1329 17.7408 17.5543 16.7232C17.9758 15.7057 18.0861 14.5861 17.8712 13.5059C17.6564 12.4257 17.126 11.4335 16.3472 10.6547C15.5685 9.87591 14.5762 9.34556 13.496 9.13069C12.4158 8.91583 11.2962 9.0261 10.2787 9.44757C9.26115 9.86904 8.39146 10.5828 7.77958 11.4985Z" fill="#4CAF4F" stroke="#4CAF4F" stroke-width="0.696069"/>
</g>
<defs>
<clipPath id="clip0_4_714">
<rect width="33.4113" height="33.4113" fill="white" transform="translate(0.924561 0.496826)"/>
</clipPath>
</defs>
</svg>
