<svg width="35" height="34" viewBox="0 0 35 34" fill="none" xmlns="http://www.w3.org/2000/svg">
<path d="M28.7674 29.5745V26.7902C28.7674 25.3133 28.1807 23.897 27.1364 22.8527C26.0921 21.8083 24.6757 21.2217 23.1988 21.2217H21.8067C21.4375 21.2217 21.0834 21.075 20.8223 20.8139C20.5612 20.5528 20.4146 20.1987 20.4146 19.8295V12.8688C20.4146 12.1304 20.1212 11.4222 19.5991 10.9C19.0769 10.3779 18.3687 10.0845 17.6303 10.0845C16.8918 10.0845 16.1836 10.3779 15.6615 10.9C15.1393 11.4222 14.846 12.1304 14.846 12.8688V25.3981L11.5049 20.9432C11.2455 20.5974 10.9092 20.3168 10.5226 20.1235C10.136 19.9302 9.70969 19.8295 9.27744 19.8295H8.67325C7.46905 19.8295 6.49316 20.8054 6.49316 22.0096C6.49316 22.405 6.60036 22.7934 6.80361 23.1317L10.6696 29.5745M17.6303 5.90813V4.51599V5.90813ZM25.9831 14.261H27.3752H25.9831ZM7.8853 14.261H9.27744H7.8853ZM11.1471 7.77777L10.1628 6.79353L11.1471 7.77777ZM24.1135 7.77777L25.0977 6.79353L24.1135 7.77777Z" fill="#4CAF4F"/>
<path d="M28.7674 29.5745V26.7902C28.7674 25.3133 28.1807 23.897 27.1364 22.8527C26.0921 21.8083 24.6757 21.2217 23.1988 21.2217H21.8067C21.4375 21.2217 21.0834 21.075 20.8223 20.8139C20.5612 20.5528 20.4146 20.1987 20.4146 19.8295V12.8688C20.4146 12.1304 20.1212 11.4222 19.5991 10.9C19.0769 10.3779 18.3687 10.0845 17.6303 10.0845V10.0845C16.8918 10.0845 16.1836 10.3779 15.6615 10.9C15.1393 11.4222 14.846 12.1304 14.846 12.8688V25.3981L11.5049 20.9432C11.2455 20.5974 10.9092 20.3168 10.5226 20.1235C10.136 19.9302 9.70969 19.8295 9.27744 19.8295H8.67325C7.46905 19.8295 6.49316 20.8054 6.49316 22.0096C6.49316 22.405 6.60036 22.7934 6.80361 23.1317L10.6696 29.5745M17.6303 5.90813V4.51599M25.9831 14.261H27.3752M7.8853 14.261H9.27744M11.1471 7.77777L10.1628 6.79353M24.1135 7.77777L25.0977 6.79353" stroke="#4CAF4F" stroke-width="1.39214" stroke-linecap="round" stroke-linejoin="round"/>
</svg>
