<svg width="39" height="21" viewBox="0 0 39 21" fill="none" xmlns="http://www.w3.org/2000/svg">
<g clip-path="url(#clip0_4_901)">
<path d="M38.3233 7.50421C38.3273 7.47518 38.3273 7.44584 38.3233 7.41681C38.3271 7.39317 38.3271 7.36905 38.3233 7.34535L38.0397 5.30402C37.9988 5.0598 37.8894 4.83153 37.7238 4.64476L37.6751 4.58916L37.586 4.50178L32.6762 0.35559L32.814 0.49063C32.7013 0.358458 32.5599 0.252738 32.4 0.181258C32.2402 0.109777 32.066 0.0743521 31.8904 0.0775962H30.3996C30.1572 0.0728876 29.9203 0.148447 29.7271 0.292058C29.5243 0.149312 29.28 0.0741391 29.0304 0.0775962H27.5396C27.3441 0.0744863 27.1512 0.122058 26.9805 0.215509C26.8097 0.308959 26.6672 0.44497 26.5674 0.609767C26.4134 0.845145 26.3555 1.12874 26.4053 1.40406L26.5917 2.6908C26.4682 2.62219 26.3285 2.5866 26.1866 2.58756H18.9677C18.7087 2.58915 18.4557 2.66357 18.2385 2.802C18.0285 2.93086 17.86 3.11536 17.7524 3.33417L17.1934 2.86555C16.9733 2.66596 16.6829 2.55778 16.3832 2.56372H5.05664C4.79672 2.56837 4.54257 2.63955 4.31938 2.77024C4.01404 2.94545 3.79026 3.23034 3.69552 3.56452L0.0982472 15.3597C0.0310335 15.5541 0.0244215 15.7637 0.0792581 15.9618C0.134095 16.1598 0.247897 16.3374 0.406125 16.4718C0.447355 16.506 0.490646 16.5378 0.53576 16.567C0.53576 16.567 0.46283 16.5194 0.42232 16.4797L5.33213 20.6338C5.53982 20.8213 5.81137 20.9261 6.09366 20.9277H17.5094C17.7701 20.921 18.0244 20.8471 18.2467 20.7132C18.3723 20.6459 18.4848 20.5571 18.5788 20.4511L18.6193 20.3955L18.6841 20.3161L18.7327 20.2287L19.2675 20.6815C19.4722 20.8615 19.7379 20.9605 20.0129 20.9595H31.4528C31.7133 20.951 31.9671 20.8771 32.1901 20.745C32.313 20.6735 32.4248 20.5853 32.5223 20.4829L32.5628 20.4273L32.6276 20.3479C32.6621 20.2976 32.6919 20.2445 32.7167 20.189C32.7432 20.1408 32.7649 20.0903 32.7815 20.0381L36.0628 9.26754V9.17222C36.0669 9.13525 36.0669 9.09798 36.0628 9.06102V8.98955C36.0668 8.96585 36.0668 8.94173 36.0628 8.91803C36.0665 8.86781 36.0665 8.81738 36.0628 8.7671H37.1161C37.2077 8.77535 37.2999 8.77535 37.3915 8.7671H37.4645C37.5238 8.74977 37.5809 8.72576 37.6346 8.69563H37.7157L37.8615 8.58444L37.9263 8.53677L38.0397 8.39378V8.34617L38.1207 8.21112C38.1162 8.18486 38.1162 8.15797 38.1207 8.13171C38.1164 8.11882 38.1164 8.10488 38.1207 8.09198C38.138 8.04542 38.1515 7.9976 38.1613 7.949C38.1575 7.93333 38.1575 7.91699 38.1613 7.90133C38.1573 7.87768 38.1573 7.85351 38.1613 7.82986C38.1613 7.82986 38.3233 7.52008 38.3233 7.50421Z" fill="black"/>
<path d="M16.7154 3.46929C16.7584 3.50742 16.7884 3.55755 16.8015 3.61294C16.8145 3.66833 16.8099 3.72631 16.7883 3.77905L13.1992 15.5663C13.154 15.695 13.0615 15.8026 12.9399 15.8682C12.8409 15.9331 12.7264 15.9714 12.6077 15.9794H1.20015C1.10273 15.9748 1.01043 15.9352 0.940885 15.8682C0.899512 15.8306 0.870474 15.7819 0.857484 15.7281C0.844495 15.6744 0.848153 15.618 0.86797 15.5663L4.46524 3.77905C4.50669 3.64874 4.59625 3.53827 4.7164 3.46929C4.81698 3.40905 4.93097 3.37362 5.04858 3.36602H16.4561C16.5528 3.36694 16.6455 3.40386 16.7154 3.46929ZM10.7604 13.1914L12.9075 6.15397H6.89584L4.7569 13.1914H10.7604ZM27.6044 3.58842C27.6433 3.63277 27.692 3.66793 27.7467 3.69131C27.8014 3.71469 27.8608 3.72568 27.9204 3.72345H29.4031C29.4595 3.72399 29.5151 3.71042 29.5648 3.68402C29.6144 3.65761 29.6563 3.61924 29.6866 3.57254C29.7129 3.53606 29.7316 3.49476 29.7413 3.45109C29.751 3.40743 29.7517 3.3623 29.7433 3.31837L29.4517 1.22144C29.4239 1.12439 29.374 1.03478 29.3059 0.959326C29.2669 0.914983 29.2183 0.879818 29.1636 0.85644C29.1089 0.833063 29.0495 0.822079 28.9899 0.824297H27.5072C27.4507 0.82376 27.3951 0.837333 27.3455 0.863739C27.2959 0.890144 27.2539 0.92851 27.2236 0.975218C27.1669 1.08641 27.1426 1.1579 27.1669 1.22144L27.4667 3.31837C27.4821 3.42047 27.5303 3.51508 27.6044 3.58842ZM32.3117 1.20556C32.2839 1.1085 32.234 1.01889 32.1658 0.94344C32.1286 0.899259 32.0813 0.864104 32.028 0.840685C31.9746 0.817271 31.9164 0.806224 31.858 0.808411H30.3672C30.3117 0.806861 30.2567 0.820069 30.2082 0.846636C30.1598 0.873203 30.1195 0.912148 30.0917 0.959326C30.0378 1.02979 30.0145 1.11831 30.0269 1.20556L30.3267 3.30248C30.3455 3.40351 30.3932 3.49718 30.4644 3.57254C30.504 3.61601 30.5528 3.65059 30.6074 3.67389C30.6619 3.6972 30.7209 3.70868 30.7804 3.70756H32.2712C32.3266 3.70828 32.3811 3.69472 32.4295 3.66823C32.4778 3.64174 32.5182 3.60328 32.5466 3.55666C32.5748 3.52112 32.5945 3.47984 32.6043 3.43586C32.6142 3.39188 32.6138 3.34631 32.6033 3.30248L32.3117 1.20556ZM26.3 4.38271L26.1541 3.35014H18.9677C18.8549 3.35623 18.7457 3.3919 18.6517 3.45339C18.5921 3.4853 18.5401 3.52951 18.4996 3.58299C18.459 3.63648 18.4308 3.69794 18.4168 3.76317L17.8173 5.73299C17.7933 5.78222 17.7851 5.83745 17.7938 5.89133C17.8025 5.94521 17.8276 5.99522 17.8659 6.03484C17.9342 6.0978 18.0234 6.1345 18.117 6.1381H26.851L24.7039 13.1755H15.9943C15.882 13.178 15.7726 13.211 15.6784 13.2708C15.5638 13.3422 15.4801 13.4525 15.4434 13.5806L14.8357 15.5504C14.8159 15.601 14.8107 15.6559 14.8207 15.7091C14.8307 15.7624 14.8555 15.8119 14.8924 15.8522C14.9586 15.9194 15.0485 15.9592 15.1436 15.9634H26.5836C26.7019 15.9535 26.8159 15.9153 26.9157 15.8522C27.0354 15.7864 27.1251 15.6786 27.1669 15.5504L30.4563 4.77986H26.7537C26.695 4.78099 26.6366 4.7703 26.5823 4.74844C26.5279 4.72658 26.4788 4.69401 26.4378 4.65277C26.3708 4.58074 26.3234 4.49333 26.3 4.3986V4.38271Z" fill="white"/>
</g>
<defs>
<clipPath id="clip0_4_901">
<rect width="38.2838" height="20.8821" fill="white" transform="translate(0.0424805 0.0773888)"/>
</clipPath>
</defs>
</svg>
