<svg width="30" height="20" viewBox="0 0 30 20" fill="none" xmlns="http://www.w3.org/2000/svg">
<g clip-path="url(#clip0_4_921)">
<path d="M27.6981 1.05684C27.6981 1.3812 27.9643 1.64414 28.2927 1.64414H28.8872C29.2156 1.64414 29.4818 1.3812 29.4818 1.05684C29.4818 0.732475 29.2156 0.469528 28.8872 0.469528H28.2927C27.9643 0.469528 27.6981 0.732475 27.6981 1.05684Z" fill="#212326"/>
<path d="M10.4558 19.2634H13.3441L12.5032 18.4328C12.2803 18.2125 11.9778 18.0888 11.6624 18.0888H10.4558C5.85869 18.0888 2.13199 14.4075 2.13199 9.86647C2.13199 5.3254 5.85869 1.64415 10.4558 1.64415H19.9688C24.5659 1.64415 28.2926 5.3254 28.2926 9.86647C28.2926 14.4075 24.5659 18.0888 19.9688 18.0888H16.4102C15.9371 18.0888 15.4834 17.9031 15.1489 17.5728L14.1638 16.5997C13.6063 16.0489 12.8501 15.7396 12.0617 15.7396H10.4558C7.17214 15.7396 4.51023 13.1101 4.51023 9.86647C4.51023 6.62283 7.17214 3.99338 10.4558 3.99338H19.9688C23.2525 3.99338 25.9144 6.62283 25.9144 9.86647C25.9144 13.1101 23.2525 15.7396 19.9688 15.7396H17.6838C17.2107 15.7396 16.7571 15.5539 16.4225 15.2235L15.4374 14.2504C14.8799 13.6997 14.1238 13.3903 13.3353 13.3903H10.4558C8.48564 13.3903 6.88846 11.8126 6.88846 9.86647C6.88846 7.92031 8.48564 6.34261 10.4558 6.34261H19.9688C21.9389 6.34261 23.5361 7.92031 23.5361 9.86647C23.5361 11.7889 21.9777 13.3518 20.0407 13.3896L20.0403 13.3903H19.1702C18.6971 13.3903 18.2435 13.2047 17.9089 12.8743L16.9238 11.9012C16.4664 11.4493 15.8752 11.1599 15.2422 11.0706L15.2123 11.0411H10.4558C9.79909 11.0411 9.2667 10.5152 9.2667 9.86647C9.2667 9.21775 9.79909 8.69185 10.4558 8.69185H19.9688C20.6255 8.69185 21.1579 9.21775 21.1579 9.86647C21.1579 10.5152 20.6255 11.0411 19.9688 11.0411H17.5905L18.4314 11.8717C18.6544 12.0919 18.9568 12.2157 19.2722 12.2157H19.9688C21.2822 12.2157 22.347 11.1639 22.347 9.86647C22.347 8.56903 21.2822 7.51723 19.9688 7.51723H10.4558C9.14237 7.51723 8.07758 8.56903 8.07758 9.86647C8.07758 11.1639 9.14237 12.2157 10.4558 12.2157H14.8217C15.2948 12.2157 15.7485 12.4013 16.083 12.7317L17.0681 13.7048C17.6256 14.2555 18.3818 14.5649 19.1702 14.5649H20.2661V14.5559C22.7545 14.4043 24.7252 12.3627 24.7252 9.86647C24.7252 7.2716 22.5957 5.168 19.9688 5.168H10.4558C7.82891 5.168 5.69935 7.2716 5.69935 9.86647C5.69935 12.4614 7.82891 14.5649 10.4558 14.5649H13.3353C13.8084 14.5649 14.2621 14.7506 14.5966 15.081L15.5817 16.0541C16.1392 16.6048 16.8954 16.9142 17.6838 16.9142H19.9688C23.9092 16.9142 27.1035 13.7588 27.1035 9.86647C27.1035 5.97411 23.9092 2.81876 19.9688 2.81876H10.4558C6.51541 2.81876 3.32111 5.97411 3.32111 9.86647C3.32111 13.7588 6.51541 16.9142 10.4558 16.9142H12.0617C12.5348 16.9142 12.9885 17.0998 13.323 17.4302L14.3081 18.4033C14.8656 18.954 15.6217 19.2634 16.4102 19.2634H19.9688C25.2226 19.2634 29.4817 15.0563 29.4817 9.86647C29.4817 4.67668 25.2226 0.469528 19.9688 0.469528L10.4558 0.46953C5.20196 0.469531 0.942871 4.67668 0.942871 9.86647C0.942872 15.0563 5.20197 19.2634 10.4558 19.2634Z" fill="#212326"/>
</g>
<defs>
<clipPath id="clip0_4_921">
<rect width="28.5388" height="18.7939" fill="white" transform="translate(0.942871 0.469528)"/>
</clipPath>
</defs>
</svg>
