<svg width="29" height="21" viewBox="0 0 29 21" fill="none" xmlns="http://www.w3.org/2000/svg">
<g clip-path="url(#clip0_4_898)">
<path fill-rule="evenodd" clip-rule="evenodd" d="M7.12127 3.63752L0.170471 10.5184C1.56076 11.8948 3.14895 13.0547 4.88052 13.9622C5.35914 15.219 6.10936 16.3976 7.13117 17.4092C10.9755 21.2148 17.2083 21.2148 21.0526 17.4092C22.0744 16.3976 22.8246 15.219 23.3032 13.9621C25.0348 13.0547 26.623 11.8948 28.0133 10.5184L21.0681 3.64311C21.0629 3.63797 21.0578 3.63282 21.0526 3.62769C17.2083 -0.177954 10.9755 -0.177954 7.13117 3.62769C7.12787 3.63097 7.12457 3.63424 7.12127 3.63752ZM20.3875 15.2036C18.3619 15.8803 16.2355 16.2269 14.0919 16.2269C11.9482 16.2269 9.82189 15.8803 7.79633 15.2036C8.0158 15.4918 8.2581 15.7685 8.5233 16.031C11.5987 19.0756 16.585 19.0756 19.6604 16.031C19.9256 15.7685 20.168 15.4918 20.3875 15.2036ZM8.66607 4.86801C9.18833 5.20958 9.74365 5.50187 10.3247 5.74016C11.519 6.22989 12.7991 6.48195 14.0919 6.48195C15.3846 6.48195 16.6647 6.22989 17.859 5.74016C18.4401 5.50187 18.9954 5.20958 19.5177 4.868C16.4806 2.00726 11.7031 2.00727 8.66607 4.86801Z" fill="#3B4158"/>
</g>
<defs>
<clipPath id="clip0_4_898">
<rect width="27.8428" height="19.4899" fill="white" transform="translate(0.170471 0.773457)"/>
</clipPath>
</defs>
</svg>
