<svg width="33" height="21" viewBox="0 0 33 21" fill="none" xmlns="http://www.w3.org/2000/svg">
<g clip-path="url(#clip0_4_905)">
<path d="M30.6173 3.25472C30.6173 3.27825 30.6173 3.30767 30.6112 3.32533C30.5805 3.55481 30.5805 3.78429 30.5989 4.01966C30.6112 4.0785 30.6234 4.13734 30.6725 4.18442C30.7522 4.27268 30.8748 4.25503 30.9238 4.14911C30.9484 4.09616 30.9484 4.0432 30.9361 3.99024C30.8748 3.76664 30.8625 3.53127 30.8564 3.30179C30.8564 3.29002 30.8564 3.27237 30.8564 3.25472C30.9238 3.24883 30.9852 3.24294 31.0403 3.24294C31.0833 3.23706 31.12 3.23118 31.1507 3.21352C31.2426 3.16645 31.2426 3.06642 31.1445 3.01935C31.1078 3.00169 31.0587 2.99581 31.0158 2.99581C30.8625 3.00169 30.7093 3.00169 30.556 3.00169C30.5008 3.00169 30.4456 3.00758 30.3904 3.01346C30.3598 3.01935 30.323 3.01935 30.2985 3.037C30.2556 3.05465 30.2311 3.08407 30.2311 3.12526C30.2372 3.16645 30.2556 3.18999 30.2985 3.20764C30.323 3.2253 30.3537 3.23118 30.3843 3.23118C30.4579 3.23706 30.5376 3.24883 30.6173 3.25472ZM32.3033 3.52539C32.3033 3.53127 32.3094 3.53716 32.3094 3.53716C32.3339 3.69603 32.3585 3.84902 32.3768 4.00201C32.383 4.05496 32.3891 4.10204 32.4259 4.14323C32.5056 4.24326 32.6282 4.23149 32.6834 4.12558C32.7079 4.07262 32.714 4.01966 32.7018 3.96082C32.665 3.78429 32.6466 3.60776 32.6098 3.43712C32.5853 3.33121 32.5547 3.23118 32.524 3.13703C32.5056 3.07819 32.4627 3.037 32.3891 3.03111C32.3156 3.01935 32.2604 3.05465 32.2297 3.10761C32.1929 3.15468 32.1623 3.20176 32.1377 3.25472C32.0948 3.34886 32.058 3.44301 32.009 3.53127C32.0028 3.55481 31.9967 3.57246 31.9845 3.59011C31.9784 3.57834 31.9722 3.57246 31.9722 3.57246C31.8925 3.42536 31.8189 3.27825 31.7393 3.13703C31.727 3.12526 31.7208 3.11349 31.7147 3.10172C31.6779 3.04877 31.635 3.01935 31.5676 3.01935C31.5063 3.02523 31.4572 3.06054 31.4266 3.11349C31.4143 3.13703 31.4143 3.15468 31.4082 3.17822C31.3836 3.36651 31.353 3.55481 31.3285 3.7431C31.3162 3.84902 31.3101 3.95493 31.3101 4.06085C31.304 4.08438 31.3101 4.11381 31.3223 4.13734C31.3346 4.18441 31.3714 4.21384 31.4204 4.21972C31.4817 4.22561 31.5246 4.20795 31.5431 4.16088C31.5614 4.12558 31.5676 4.09616 31.5737 4.06674C31.5982 3.96082 31.6166 3.86079 31.635 3.76076C31.6473 3.70191 31.6534 3.65484 31.6718 3.59011C31.6841 3.61365 31.6963 3.6313 31.7086 3.64895C31.7637 3.71957 31.8189 3.79018 31.8864 3.84902C31.9538 3.89609 32.009 3.89021 32.0642 3.83725C32.0765 3.82548 32.0826 3.8196 32.0948 3.80783C32.15 3.72545 32.2175 3.64307 32.2726 3.56069C32.2849 3.54892 32.291 3.53716 32.3033 3.52539Z" fill="#3A3B7B"/>
<path d="M18.1771 3.37033C18.1345 3.48216 18.1264 3.56272 18.146 3.62968C18.1678 3.72074 18.2242 3.75055 18.3007 3.72739C19.0208 3.55649 20.5999 4.04159 21.1845 4.1768C21.3224 4.20519 21.4346 4.03436 21.3405 3.88121C21.2032 3.73289 19.6248 3.09787 19.0226 3.06324C18.7865 3.05044 18.3645 2.99234 18.1771 3.37033Z" fill="#3A3B7B"/>
<path d="M24.3484 1.31466C24.4252 1.35718 24.4681 1.39773 24.4892 1.44305C24.5208 1.50249 24.5041 1.54361 24.4511 1.56459C23.9751 1.78757 23.3417 2.74751 23.086 3.07858C23.0241 3.15474 22.8811 3.11049 22.8595 2.98524C22.8639 2.84363 23.4254 1.80188 23.7388 1.51814C23.8619 1.40736 24.0654 1.19 24.3484 1.31466Z" fill="#3A3B7B"/>
<path d="M20.5576 0.842156C20.6498 0.775461 20.7456 0.752089 20.7946 0.795432C21.5128 1.38493 21.8936 2.31846 22.1294 3.17308C22.1383 3.19299 22.1389 3.22156 22.1318 3.25137C22.1288 3.27684 22.1094 3.30376 22.0786 3.32458C22.0457 3.34757 22.0174 3.35457 22.0041 3.33476C21.6893 2.92385 19.8915 1.32507 20.5576 0.842156Z" fill="#3A3B7B"/>
<path d="M5.3491 11.0626C5.52123 10.9396 5.70836 10.8372 5.90638 10.7577C6.11356 10.7009 6.33439 10.7103 6.5355 10.7846C6.73655 10.8589 6.907 10.9941 7.02094 11.1696C7.12287 11.3446 7.16274 11.5468 7.13461 11.7455C7.10647 11.9442 7.01183 12.1288 6.86489 12.2714C6.751 12.387 6.62168 12.4877 6.48039 12.5709C5.85067 12.9614 5.21534 13.3304 4.58004 13.7209C4.45005 13.8186 4.31214 13.9063 4.16765 13.983C3.94786 14.0882 3.69668 14.1164 3.45754 14.0626C3.2184 14.009 3.00634 13.8767 2.85803 13.6888C2.74716 13.5558 2.65359 13.4103 2.57938 13.2556C1.97752 12.0414 1.35336 10.8326 0.773781 9.59704C0.506282 9.06221 0.288942 8.44708 0.0771737 7.85338C-0.0144471 7.68089 -0.0323386 7.48091 0.0273089 7.29593C0.0869565 7.11095 0.219437 6.95561 0.39657 6.86294C0.573704 6.77027 0.781511 6.7476 0.975802 6.79972C1.17009 6.85184 1.33554 6.97465 1.43695 7.14201C1.74865 7.53958 2.02458 7.96188 2.26173 8.40433C2.8636 9.47405 3.43761 10.5438 4.01718 11.5814C4.05093 11.6388 4.08814 11.6941 4.12864 11.7472C4.56487 11.5712 4.97516 11.341 5.3491 11.0626Z" fill="#3A3B7B"/>
<path d="M11.572 10.6894C10.1955 12.2352 7.88834 11.8447 6.72919 9.85499C5.9044 8.44294 5.75951 6.1109 7.55399 4.64001C7.93718 4.33207 8.39538 4.1223 8.88588 4.03026C9.48728 3.94751 10.1005 4.04934 10.638 4.3212C11.1755 4.59306 11.6097 5.02103 11.8785 5.54395C12.8593 7.25554 12.72 9.43779 11.572 10.6894ZM11.0147 7.08437C10.8685 6.66377 10.5751 6.30469 10.1843 6.0681C9.96324 5.91684 9.69455 5.8433 9.42358 5.85986C9.15255 5.87642 8.89579 5.98208 8.69641 6.15903C7.89951 6.83833 7.73229 8.4483 8.31187 9.40572C8.38575 9.56184 8.49423 9.70057 8.62981 9.81224C8.76539 9.9239 8.92476 10.0058 9.09675 10.0521C9.26874 10.0985 9.44919 10.1082 9.62552 10.0807C9.80186 10.053 9.96973 9.98882 10.1175 9.89243C10.5495 9.57097 10.8664 9.12834 11.0242 8.62608C11.182 8.12377 11.1729 7.58677 10.998 7.08974L11.0147 7.08437Z" fill="#3A3B7B"/>
<path d="M17.1895 7.75835C17.0485 7.78743 16.903 7.78918 16.7613 7.76344C16.6197 7.7377 16.4848 7.68508 16.3647 7.6086C16.2596 7.55089 16.1691 7.47157 16.0998 7.37628C16.0304 7.28099 15.984 7.17217 15.9638 7.05757C15.9435 6.94302 15.95 6.82557 15.9826 6.71367C16.0153 6.60178 16.0735 6.49823 16.1529 6.41047C16.2913 6.23412 16.4877 6.10786 16.7102 6.05212C17.2913 5.89027 17.8895 5.79159 18.4935 5.75796C18.6263 5.74314 18.7607 5.75392 18.889 5.78966C19.0173 5.82544 19.1369 5.88541 19.2407 5.96615C19.3445 6.04685 19.4305 6.14668 19.4936 6.25972C19.5567 6.37276 19.5956 6.49677 19.6081 6.62444C19.7822 7.25159 19.8013 7.90915 19.6638 8.54464C19.1623 10.5985 17.4347 11.3045 15.4953 10.6466C14.9509 10.4708 14.4736 10.143 14.1244 9.70529C13.6586 9.17816 13.3284 8.55345 13.1603 7.88139C13.0241 7.28292 13.039 6.66192 13.2038 6.07015C13.3686 5.47838 13.6785 4.93302 14.1077 4.47961C14.5149 3.98681 15.0435 3.59898 15.6458 3.35103C16.0264 3.1497 16.4717 3.09246 16.8941 3.19057C16.9899 3.21603 17.0769 3.26562 17.146 3.33421C17.2152 3.40281 17.2639 3.48789 17.2872 3.58066C17.3105 3.67343 17.3076 3.77049 17.2786 3.86179C17.2496 3.95308 17.1958 4.03527 17.1226 4.09985C16.9834 4.22076 16.8322 4.32825 16.6712 4.42077C16.1757 4.7236 15.7446 5.1138 15.4006 5.57073C15.1751 5.86641 15.0198 6.20595 14.9457 6.5654C14.8715 6.92485 14.8803 7.29554 14.9715 7.65141C15.0979 8.13661 15.3783 8.57212 15.774 8.89762C17 9.96739 18.5938 8.93505 18.3152 7.47487C17.9084 7.57117 17.5517 7.67279 17.1895 7.75835Z" fill="#3A3B7B"/>
<path d="M24.6794 10.775C22.8683 11.8448 20.8063 10.775 20.3549 8.52858C20.0261 6.92398 20.6503 4.67751 22.8349 3.82172C23.2996 3.64356 23.8038 3.581 24.3005 3.63986C24.8973 3.74471 25.4447 4.02669 25.8656 4.44604C26.2865 4.86539 26.5598 5.40094 26.6467 5.97725C27.0145 7.88671 26.1785 9.92458 24.6794 10.775ZM25.3092 7.17534C25.3086 6.73102 25.1449 6.30105 24.8467 5.96119C24.6872 5.75098 24.4568 5.60037 24.1946 5.53499C23.9324 5.46966 23.6547 5.49361 23.4088 5.60285C22.428 6.00932 21.737 7.48556 21.9878 8.57138C22.0069 8.74177 22.0646 8.9061 22.1568 9.05287C22.249 9.19963 22.3735 9.32529 22.5216 9.42108C22.6697 9.51682 22.8378 9.58041 23.0141 9.60734C23.1905 9.63422 23.3709 9.62385 23.5426 9.57692C24.061 9.40309 24.5099 9.07824 24.8266 8.64768C25.1433 8.21712 25.3121 7.70238 25.3092 7.17534Z" fill="#3A3B7B"/>
<path d="M28.4783 11.2243C28.451 11.4201 28.3438 11.5974 28.1802 11.7173C28.0166 11.8371 27.8101 11.8897 27.6062 11.8635C27.4022 11.8372 27.2175 11.7343 27.0926 11.5773C26.9677 11.4203 26.9129 11.2221 26.9402 11.0264C26.9676 10.8306 27.0748 10.6533 27.2384 10.5334C27.4019 10.4136 27.6084 10.361 27.8124 10.3872C28.0163 10.4135 28.2011 10.5164 28.326 10.6734C28.4509 10.8304 28.5057 11.0285 28.4783 11.2243ZM27.9935 4.00889C28.0995 3.85352 28.255 3.73521 28.4368 3.67159C28.6185 3.60797 28.8169 3.60246 29.0022 3.65587C29.1906 3.70111 29.357 3.80709 29.4737 3.95607C29.5904 4.10505 29.6501 4.28798 29.6431 4.47422C29.6185 4.77296 29.5719 5.06967 29.5038 5.3621C29.3198 6.35162 29.1415 7.34111 28.9465 8.31994C28.8573 8.71041 28.7403 9.08481 28.6121 9.48059C28.5675 9.60433 28.493 9.71613 28.3948 9.80687C28.3337 9.87514 28.2557 9.92749 28.1679 9.9591C28.0801 9.99075 27.9855 10.0006 27.8927 9.98781C27.7999 9.97501 27.712 9.93996 27.6371 9.88592C27.5621 9.83183 27.5027 9.76049 27.4641 9.67851C27.3978 9.53143 27.3618 9.37338 27.3582 9.21318C27.3582 8.54993 27.3582 7.88136 27.4028 7.21274C27.4785 6.25859 27.6275 5.31107 27.8486 4.37795C27.8746 4.25293 27.9237 4.13338 27.9935 4.02493V4.00889Z" fill="#3A3B7B"/>
<path fill-rule="evenodd" clip-rule="evenodd" d="M2.99459 15.5224C2.92879 15.6634 2.91074 15.8206 2.9429 15.9718C2.96429 16.1712 3.01127 16.3673 3.08278 16.5557C3.17205 16.7864 3.27195 17.0145 3.39513 17.2956C3.42346 17.3603 3.45306 17.4278 3.48403 17.4989C3.65014 17.8798 3.85857 18.3665 4.13658 19.071C4.21527 19.2711 4.28514 19.4729 4.35551 19.676C4.38393 19.7581 4.41246 19.8404 4.44166 19.923C4.54633 20.2164 4.72643 20.48 4.96516 20.6889C5.06653 20.8038 5.20099 20.8874 5.35176 20.9293C5.50548 20.9719 5.66896 20.9692 5.82104 20.9215C5.97312 20.8738 6.10669 20.7832 6.20442 20.6616C6.30023 20.5424 6.3572 20.3987 6.36827 20.2486C6.43043 19.9561 6.40921 19.6529 6.30677 19.371C6.14417 18.9029 5.95896 18.4342 5.74537 17.9757L5.74439 17.9736C5.39303 17.2563 5.03587 16.5439 4.66182 15.8313L4.65902 15.8263C4.54952 15.6406 4.40721 15.4746 4.23849 15.3358C4.12896 15.2119 3.97788 15.1283 3.81103 15.0995C3.64062 15.0701 3.46488 15.0997 3.31516 15.1831C3.17353 15.2608 3.06126 15.3795 2.99459 15.5224Z" fill="#3A3B7B"/>
<path fill-rule="evenodd" clip-rule="evenodd" d="M8.36111 13.756C7.81018 13.6191 7.23481 13.5991 6.6751 13.6976C6.24158 13.7386 5.8152 13.8345 5.51913 14.0247C5.36855 14.1214 5.2468 14.2457 5.17908 14.4036C5.11098 14.5623 5.10229 14.7439 5.15809 14.9462C5.25998 15.3168 5.39229 15.6772 5.52413 16.0363L5.54549 16.0945L5.546 16.0958C5.94298 17.1392 6.34374 18.1791 6.74815 19.2154C6.79531 19.3788 6.862 19.5363 6.94687 19.6849L6.94846 19.6877C7.06058 19.8723 7.20439 20.0374 7.37381 20.1761C7.45854 20.2523 7.56332 20.3051 7.67694 20.3287C7.79167 20.3524 7.91099 20.3455 8.0219 20.3087C8.13285 20.2718 8.23109 20.2064 8.30596 20.1196C8.37961 20.0343 8.42784 19.9314 8.44556 19.8219C8.51865 19.5246 8.49524 19.2128 8.3784 18.9286C8.34194 18.8329 8.31334 18.7352 8.2832 18.6323C8.27315 18.5979 8.26296 18.563 8.25221 18.5275C9.17791 18.1802 10.1629 17.7132 10.5092 16.6268C10.6449 16.2514 10.6562 15.8449 10.5416 15.463C10.4269 15.0807 10.1916 14.7419 9.86806 14.4931C9.42776 14.1449 8.91343 13.8933 8.36111 13.756ZM6.834 15.0886C6.85223 15.0835 6.8706 15.0788 6.88901 15.0745C7.49167 14.9835 8.10826 15.1047 8.62526 15.4156C8.8531 15.5677 8.94643 15.7366 8.96246 15.8992C8.979 16.0666 8.91558 16.248 8.78818 16.4224C8.54744 16.7518 8.10812 17.0154 7.71129 17.0646C7.42199 16.4251 7.12821 15.7598 6.834 15.0886Z" fill="#3A3B7B"/>
<path d="M12.034 12.5856C12.6901 12.2948 13.5028 12.2446 14.1388 12.4491C14.2989 12.4938 14.4379 12.5907 14.5319 12.723C14.6252 12.8546 14.6683 13.0131 14.6539 13.1715C14.653 13.2744 14.6267 13.3756 14.5772 13.4669C14.5268 13.5598 14.4539 13.6398 14.3645 13.7C14.2751 13.7601 14.172 13.7988 14.0638 13.8126C13.9556 13.8264 13.8455 13.8151 13.7428 13.7794L13.735 13.7767L13.7277 13.773C13.6751 13.7466 13.6193 13.7268 13.5616 13.7138L13.558 13.713C13.1106 13.599 12.6886 13.788 12.5345 14.0201C12.461 14.1308 12.4519 14.2426 12.5131 14.3443C12.5787 14.4531 12.7395 14.5753 13.0649 14.6624C13.1544 14.686 13.2461 14.7087 13.3392 14.7318C13.5965 14.7958 13.8639 14.8622 14.1225 14.9543L14.1235 14.9547C15.3165 15.3903 15.7607 16.2926 15.6087 17.1412C15.4582 17.9804 14.728 18.7442 13.6298 18.9244C13.2302 19.0094 12.8143 18.9928 12.4234 18.8763C12.0315 18.7595 11.6782 18.5463 11.3987 18.2578L11.3914 18.2503C11.3031 18.1416 11.2438 18.0139 11.2175 17.8785C11.1933 17.7562 11.206 17.6299 11.2542 17.5143C11.302 17.3994 11.383 17.3 11.4874 17.2276C11.5978 17.1454 11.7308 17.0962 11.87 17.0859C12.0088 17.0757 12.1476 17.1046 12.2695 17.1691C12.3912 17.2255 12.5043 17.2975 12.606 17.3831L12.6079 17.3847C12.7876 17.5425 13.0051 17.5836 13.2136 17.5455C13.4252 17.5069 13.6241 17.3867 13.7521 17.2273C13.8792 17.0689 13.9303 16.8807 13.8697 16.698C13.8088 16.514 13.6255 16.3078 13.2229 16.1354C13.1176 16.0926 13.0085 16.058 12.895 16.0243C12.8644 16.0152 12.8332 16.0062 12.8017 15.997C12.7178 15.9725 12.6314 15.9473 12.5467 15.9196C12.4884 15.9005 12.4306 15.8824 12.3733 15.8645C12.2166 15.8155 12.064 15.7678 11.917 15.7038C11.5972 15.5993 11.3209 15.3987 11.1292 15.1315C10.9368 14.8633 10.8399 14.5426 10.8531 14.2172C10.8541 13.4243 11.3745 12.8781 12.034 12.5856Z" fill="#3A3B7B"/>
<path d="M20.3518 12.5011C20.2246 12.4415 20.0839 12.4132 19.9425 12.4188C19.801 12.4243 19.6633 12.4636 19.5416 12.5331C19.4207 12.6021 19.3195 12.6987 19.2469 12.8144C19.1804 12.9118 19.1344 13.0207 19.1115 13.1351C19.0885 13.2494 19.0891 13.3668 19.113 13.4808C19.1367 13.6273 19.163 13.7698 19.1889 13.9104C19.2319 14.1429 19.2737 14.3702 19.3013 14.602L19.3023 14.6079C19.365 14.9714 19.3979 15.339 19.4008 15.7074L19.4011 15.7126C19.4226 16.1105 19.2813 16.5005 19.0077 16.8001L19.0034 16.8054C18.9143 16.915 18.7953 16.9985 18.6595 17.0469C18.5238 17.0952 18.3768 17.1063 18.2348 17.0789C18.0929 17.0516 17.9617 16.9869 17.8559 16.8921C17.7501 16.7972 17.6738 16.6757 17.6357 16.5417C17.5543 16.2592 17.5073 15.9686 17.4953 15.6759L17.6342 13.5534C17.6363 13.5257 17.6386 13.4973 17.641 13.4686C17.6463 13.4041 17.6517 13.3385 17.6539 13.2772C17.6572 13.1871 17.6544 13.0944 17.6325 13.0067C17.6102 12.9171 17.5676 12.8318 17.4921 12.7592C17.4173 12.6873 17.3163 12.6342 17.1893 12.5981C16.9596 12.5343 16.7654 12.5363 16.6035 12.6023C16.4416 12.6682 16.3306 12.7906 16.2521 12.932C16.1742 13.0722 16.1241 13.2382 16.0863 13.4044C16.0582 13.5278 16.0356 13.6573 16.0142 13.7806C16.0067 13.8231 15.9995 13.8648 15.9922 13.9053L15.992 13.9065C15.8772 14.5825 15.843 15.2689 15.8901 15.9524C15.8989 16.3218 15.9792 16.6864 16.1268 17.0275C16.2935 17.4678 16.5952 17.8492 16.9923 18.1215C17.3903 18.3943 17.8652 18.5447 18.3541 18.5526C18.8431 18.5605 19.323 18.4257 19.7304 18.166C20.1371 17.9066 20.4523 17.5349 20.6343 17.1001C20.8888 16.5461 21.0084 15.9436 20.9837 15.3386C20.9687 14.8969 20.9437 14.4518 20.9188 14.009C20.9065 13.7917 20.8943 13.575 20.8834 13.3595C20.8779 13.1435 20.8037 12.9342 20.6707 12.7598C20.5884 12.6496 20.4788 12.5607 20.3518 12.5011Z" fill="#3A3B7B"/>
<path d="M24.8545 15.8291C24.8416 15.8449 24.828 15.8611 24.8138 15.8781C24.7103 15.3052 24.6144 14.7324 24.5183 14.1588C24.4839 13.953 24.4493 13.7463 24.4144 13.5403L24.4105 13.5173L24.3978 13.4974C24.3738 13.46 24.3714 13.4234 24.3714 13.3452V13.3361L24.37 13.3272C24.344 13.1658 24.2679 13.0155 24.1517 12.8961C24.0358 12.7771 23.8852 12.6942 23.7197 12.6583C23.5544 12.6191 23.3806 12.6278 23.2204 12.6831C23.0605 12.7383 22.9212 12.8375 22.8198 12.9682C22.7355 13.0685 22.6664 13.1798 22.6146 13.2988C22.497 13.5549 22.3785 13.8118 22.2596 14.0693L22.2575 14.0737C21.9607 14.7166 21.6619 15.3638 21.3717 16.0161L21.3708 16.0182C21.1927 16.4411 21.0457 16.8868 20.8992 17.3311C20.8699 17.4197 20.8407 17.5084 20.8112 17.5968C20.7583 17.737 20.7351 17.8859 20.7431 18.0348C20.7335 18.168 20.7667 18.301 20.8384 18.4156C20.9115 18.5326 21.021 18.6247 21.1514 18.6788C21.2897 18.737 21.4442 18.7494 21.5906 18.7139C21.7367 18.6786 21.8665 18.5976 21.9594 18.4839C22.0781 18.3437 22.1803 18.1908 22.2635 18.0289C22.5093 17.5464 22.7442 17.0579 22.978 16.5716C23.0685 16.3835 23.1564 16.2151 23.2565 16.0316C23.2633 16.0542 23.2703 16.0763 23.2776 16.0984C23.3824 16.5414 23.5594 16.9656 23.8019 17.3557C23.8478 17.4383 23.9117 17.5105 23.9893 17.5674C24.0678 17.6249 24.1584 17.6653 24.2548 17.6858C24.3513 17.7063 24.4512 17.7064 24.5476 17.6861C24.644 17.6658 24.7349 17.6254 24.8134 17.5681L24.9689 17.4564L26.1758 16.4807L26.1044 16.9172C26.0065 17.5173 25.9092 18.1123 25.806 18.7075C25.7384 18.9713 25.7385 19.2468 25.8062 19.5105C25.8356 19.6589 25.9104 19.7955 26.021 19.903C26.1326 20.0113 26.2756 20.0849 26.4313 20.1142C26.587 20.1436 26.7483 20.1273 26.8943 20.0675C27.0382 20.0087 27.1605 19.9102 27.246 19.7848C27.445 19.5478 27.5689 19.2609 27.6029 18.9583C27.6541 18.5309 27.712 18.0977 27.7699 17.6646C27.8366 17.1654 27.9033 16.6663 27.9596 16.1769L27.9598 16.1754C28.014 15.6396 28.0402 15.1016 28.0384 14.5632C28.0503 14.3931 28.0062 14.2236 27.9121 14.0788C27.8178 13.9335 27.678 13.8205 27.5129 13.7558C27.3411 13.6809 27.1487 13.6608 26.9642 13.6987C26.7808 13.7363 26.6149 13.8291 26.4904 13.9635C26.2678 14.1611 26.0589 14.3725 25.8652 14.5964L25.8639 14.598C25.6524 14.8509 25.4424 15.1088 25.2337 15.365C25.1068 15.5207 24.9803 15.6761 24.8545 15.8291Z" fill="#3A3B7B"/>
</g>
<defs>
<clipPath id="clip0_4_905">
<rect width="32.7153" height="20.186" fill="white" transform="translate(-0.00732422 0.773457)"/>
</clipPath>
</defs>
</svg>
